<?xml version="1.0" encoding="UTF-8"?>
<svg id="Layer_1" xmlns="http://www.w3.org/2000/svg" version="1.1" viewBox="0 0 1176 1176">
  <!-- Generator: Adobe Illustrator 30.0.0, SVG Export Plug-In . SVG Version: 2.1.1 Build 123)  -->
  <defs>
    <style>
      .st0 {
        fill: #fff;
      }
    </style>
  </defs>
  <path class="st0" d="M1176,0v1176H0V0h1176ZM673.12,243.35c0-76.89-62.33-139.23-139.23-139.23s-139.23,62.33-139.23,139.23,62.33,139.23,139.23,139.23,139.23-62.33,139.23-139.23ZM944.42,922.42c175.15-154.09,235.39-386.02,163.85-609.18-9.22-28.76-29.34-80.59-46.07-104.93-14.55-21.17-45.11-5.11-39.51,18.51,2.09,8.82,9.85,20.71,13.49,29.51,15.49,37.46,16.81,77.21,12.82,117.16-14.93,149.32-125.71,282.11-249.66,358.34-172.1,105.83-428.3,142.9-576.84-21.81-109.63-121.56-156.63-301.87-83.66-454.69,7.45-15.61,26.56-37.41,6.68-52.32-14.23-10.67-26.15-1.31-33.67,11.33-27.5,46.22-52.6,115.62-62.54,168.46-40.44,215.09,28.21,422.86,202.24,557.18,208.73,161.11,493.85,157.56,692.89-17.55ZM888.65,422.83c0-58.34-47.29-105.63-105.63-105.63s-105.63,47.29-105.63,105.63,47.29,105.63,105.63,105.63,105.63-47.29,105.63-105.63ZM497.42,440.58c-54.11-58.69-128.05-98.79-208.39-65.05-109.33,45.93-107.52,214.91-44.45,297.38,71.48,93.47,207.02,122.39,318.64,104.81,10.99-1.73,21.91-4.4,32.77-6.74l-14.51-12.97c-43.48-31.51-81.08-73.96-99.47-125.02,42.11,29.39,86.88,56.24,135.22,74.27,28.74,10.72,70.62,24.03,101.17,20.62,33-3.68,91.56-47.6,118.08-68.92,38.17-30.69,74.33-65.54,101.5-106.48-41.31-15.48-86.98-4.68-127.97,7.01-30.15,8.59-59.54,21.05-89.35,29.65-23.04,6.64-35.45,9.38-58.33.03-71.59-29.26-115.19-94.68-164.9-148.6Z"/>
  <path d="M944.42,922.42c-199.04,175.11-484.16,178.66-692.89,17.55C77.5,805.65,8.85,597.88,49.29,382.79c9.94-52.85,35.04-122.25,62.54-168.46,7.52-12.64,19.44-22,33.67-11.33,19.89,14.91.77,36.71-6.68,52.32-72.97,152.83-25.96,333.13,83.66,454.69,148.54,164.71,404.74,127.64,576.84,21.81,123.95-76.22,234.73-209.02,249.66-358.34,4-39.95,2.67-79.7-12.82-117.16-3.64-8.8-11.4-20.69-13.49-29.51-5.59-23.63,24.97-39.68,39.51-18.51,16.73,24.34,36.85,76.17,46.07,104.93,71.55,223.16,11.3,455.09-163.85,609.18ZM1088,404c-2.5-.18-1.71-.24-1.97,1.51-5.5,36.99-15.62,67.22-30.85,101.17-101.21,225.57-369.59,377.36-615.67,353.32-26.13-2.55-52.7-7.22-77.99-14.01l-.51,2c1.15.16,2.38.46,3.33,1.15,127.18,93.05,288.64,124.58,444.08,103.85,34.54-4.61,49.35-15.23,76.5-35.57,25.52-19.11,53.79-44.33,74.6-68.4,5.49-6.35,10.88-12.97,15.49-20l-62.32,29.17c-52.33,21.42-106.87,37.72-162.47,48.53-10.65,2.07-25.29,5.83-35.72,6.28-29.11,1.26-31.01-32.96-4.28-40.28,17.63-4.83,39.55-6.88,57.98-11.02,71.51-16.05,146.72-44.14,211.17-77.83,13.08-6.84,31.04-15.53,42.12-24.88,19.04-16.05,41.35-77.27,50.74-102.26.36-.97,1.57-3.08.28-3.73-8.1,10.43-16.31,21.17-25.45,30.56-21.11,21.68-46.16,41.88-71.33,58.67-9.99,6.67-42.89,27.2-53.26,27.79-11.27.64-20.61-9.02-19.4-20.4,1.74-16.41,35.01-30.98,47.86-39.19,51.53-32.9,100.87-80.35,128.6-135.4,23.19-46.04,17.5-108.93,9.62-158.66-.62-3.91-.9-8.38-1.15-12.36ZM248.42,798.58c-47.5-49.64-94.54-102.08-127.94-162.56-14.12-25.58-26.29-53.66-36.49-81.01-1.71-.26-1.07,2.38-.98,3.48,23.04,282.7,302.27,497.98,582.2,453.23,16.05-2.57,31.74-7.24,47.8-9.72l-1.48-2c-104.79-1.63-211.89-26.44-304.54-75.47-61.22-32.4-111.17-76.41-158.56-125.94Z"/>
  <path d="M497.42,440.58c49.71,53.92,93.31,119.34,164.9,148.6,22.88,9.35,35.29,6.61,58.33-.03,29.81-8.59,59.21-21.05,89.35-29.65,41-11.69,86.66-22.49,127.97-7.01-27.18,40.94-63.33,75.79-101.5,106.48-26.52,21.33-85.08,65.25-118.08,68.92-30.55,3.4-72.42-9.91-101.17-20.62-48.34-18.03-93.1-44.89-135.22-74.27,18.38,51.06,55.99,93.51,99.47,125.02l14.51,12.97c-10.86,2.33-21.78,5.01-32.77,6.74-111.62,17.58-247.16-11.34-318.64-104.81-63.07-82.47-64.89-251.46,44.45-297.38,80.33-33.74,154.27,6.36,208.39,65.05Z"/>
  <circle cx="533.89" cy="243.35" r="139.23"/>
  <circle cx="783.03" cy="422.83" r="105.63"/>
  <path class="st0" d="M1088,404c.24,3.97.53,8.45,1.15,12.36,7.88,49.73,13.57,112.62-9.62,158.66-27.73,55.05-77.06,102.5-128.6,135.4-12.85,8.21-46.12,22.78-47.86,39.19-1.21,11.38,8.13,21.04,19.4,20.4,10.37-.59,43.26-21.12,53.26-27.79,25.16-16.79,50.21-37,71.33-58.67,9.15-9.39,17.35-20.13,25.45-30.56,1.28.65.08,2.76-.28,3.73-9.39,24.99-31.7,86.21-50.74,102.26-11.09,9.34-29.05,18.04-42.12,24.88-64.45,33.69-139.65,61.79-211.17,77.83-18.43,4.14-40.36,6.19-57.98,11.02-26.72,7.32-24.83,41.54,4.28,40.28,10.43-.45,25.07-4.21,35.72-6.28,55.6-10.81,110.13-27.12,162.47-48.53l62.32-29.17c-4.6,7.03-9.99,13.65-15.49,20-20.81,24.07-49.08,49.29-74.6,68.4-27.16,20.34-41.97,30.96-76.5,35.57-155.44,20.73-316.9-10.8-444.08-103.85-.95-.69-2.18-.99-3.33-1.15l.51-2c25.29,6.79,51.86,11.45,77.99,14.01,246.08,24.04,514.46-127.74,615.67-353.32,15.23-33.95,25.35-64.18,30.85-101.17.26-1.74-.53-1.68,1.97-1.51Z"/>
  <path class="st0" d="M248.42,798.58c47.39,49.53,97.34,93.54,158.56,125.94,92.65,49.03,199.75,73.84,304.54,75.47l1.48,2c-16.06,2.48-31.75,7.15-47.8,9.72-279.93,44.75-559.16-170.53-582.2-453.23-.09-1.09-.73-3.73.98-3.48,10.2,27.35,22.37,55.44,36.49,81.01,33.4,60.48,80.44,112.92,127.94,162.56Z"/>
</svg>