<?xml version="1.0" encoding="UTF-8"?>
<svg id="Layer_1" xmlns="http://www.w3.org/2000/svg" version="1.1" viewBox="0 0 827.52 162.72">
  <!-- Generator: Adobe Illustrator 30.0.0, SVG Export Plug-In . SVG Version: 2.1.1 Build 123)  -->
  <defs>
    <style>
      .st0 {
        fill: #fff;
      }
    </style>
  </defs>
  <path class="st0" d="M827.52,0v162.72H0V0h827.52ZM27.7,31.25C-7.79,67.87,7.85,133.84,58.32,147.03c21.42,5.6,49.22.59,65.17-15.45,10.43-10.49-2.55-23.8-12.73-15.58-1.47,1.19-2.76,2.81-4.33,4.06-17.29,13.78-42.69,13.1-59.75-.72-21.8-17.66-23.15-53.23-4.81-73.81,14.93-16.75,40.49-20.21,59.81-8.91,6.9,4.04,11.68,13.31,20.72,8.56,2.58-1.35,4.78-4.79,5.03-7.68.45-5.32-3.67-8.94-7.46-11.95C92.59,3.72,52.06,6.12,27.7,31.25ZM528,112.87c-.45.1-.47-.15-.68-.4-.99-1.16-2.06-2.69-3.01-3.94-23.75-30.89-46.73-62.38-70.58-93.21-4.56-4.77-14.92-5.02-18.52.93-3.07,5.07-1.49,15.97-1.52,21.95-.11,30.56-.7,61.25,0,91.79.09,3.85-.64,8.78.9,12.28,3.95,8.97,18.7,7.01,19.42-3.23l.07-91.36,73.67,96.46c5.66,6.81,19.5,4.89,20.66-4.79V20.01c-2.78-12.34-21.32-9.93-20.65,2.88.73,28.86-.97,58.2-.01,87,.03,1,.4,1.96.25,2.98ZM780.48,45.77v-25.76c0-.53-1.05-2.82-1.39-3.4-4.53-7.61-19.41-4.61-19.24,5.08.88,28.47-1.18,57.65-.01,86.04.86,20.91,11.42,39.04,33.98,40.84,5.92.47,17.69-.8,22.2-4.91,4.77-4.35,3.98-11.99-1.37-15.41s-9.44.75-14.6,1.15c-13.01,1-18.99-7.76-19.57-19.76l.04-44.31c.29-.87,2.46-.17,3.2-.14,6.04.19,14.26.48,20.17-.01,6.85-.57,11.11-6.36,8.99-13.04-.87-2.73-4.55-6.36-7.55-6.36h-24.84ZM710.11,44.41c-20.43.91-35.2,13.99-32.04,35.45,1.84,12.47,10.92,17.97,21.89,21.76,7.05,2.44,20.84,4.64,25.14,10.84,2.51,3.63,2.1,10.73-1.02,13.95-7.12,7.36-21.15,5.87-29.26.94-3.5-2.12-5.78-5.07-10.26-5.04-8.55.05-12.3,10.68-6.32,16.57,8.44,8.31,25.68,11.39,37.08,10.18,20.22-2.15,32.79-14.67,31.08-35.58-1.05-12.89-12.95-20.82-24.24-24.21-8.35-2.51-26.43-4.3-25.17-16.51,1.02-9.9,13.27-11.5,21.14-9.9,7,1.42,15.16,9.68,21.42,2.55,4.89-5.57,2.53-11.9-3.31-15.37-7.96-4.73-16.98-6.05-26.13-5.64ZM184.51,44.65c-38.62,2.69-59.96,47.3-40.13,79.95,14.86,24.48,49.43,33.55,72.45,14.63,1.93-1.59,3.55-3.5,5.52-5.03.44.28.27.38.26.72-.27,7.01,1.87,13.18,10.08,13.19,6.85.01,10-4.21,10.43-10.68.88-13.32-.66-27.57.01-40.99-.92-23.11-13.23-41.87-35.41-49.48-7.14-2.45-15.67-2.85-23.21-2.32ZM261.7,145.84c3.12,2.84,7.6,3.06,11.47,1.72,4.11-1.43,5.93-5.22,6.2-9.39,1.04-15.89-.99-32.96,0-48.9.8-13.06,9.57-25.41,23.63-25.54,4.74-.04,8.77,2.49,13.09-.82s4.92-9.87,1.77-14c-2.38-3.13-6.04-4.08-9.82-4.33-28.69-1.91-48.05,18.62-49.33,46.36-.73,15.78.57,32.11,0,47.95.25,2.61,1,5.15,2.99,6.95ZM342.24,104.49h69.24c4.22,0,7.09-5.8,7.33-9.46.84-12.96-7.17-29.63-16.81-38.12-30.69-27.05-73.66-6.46-80.05,31.51-6.28,37.29,28.53,70.47,65.4,57.88,6.06-2.07,17.88-7.79,20.28-14.02,1.92-4.98-.75-11.25-6.1-12.59-7-1.75-9.98,3.61-15.3,6.56-9.04,5.01-17.61,5.57-26.92.86s-15.3-12.61-17.07-22.62ZM584.52,104.49h73.92c2.77,0,5.93-3.42,6.85-5.87,2.84-7.57-2.21-22.66-6.2-29.52-20.21-34.7-71.6-32.28-89.84,2.87-17.85,34.39,4.47,74.94,43.37,77.33,12.63.77,32.8-4.38,41.04-14.61,4.85-6.02.5-15.1-7.2-15.35-4.55-.15-6.7,2.85-10.03,5.1-17.36,11.72-42.55,6.15-50.62-13.79-.52-1.28-1.53-4.38-1.54-5.66,0-.29.03-.31.27-.49Z"/>
  <path d="M528,112.87c.15-1.02-.22-1.98-.25-2.98-.96-28.8.74-58.14.01-87-.67-12.81,17.87-15.22,20.64-2.88v119.35c-1.15,9.68-14.99,11.6-20.65,4.79l-73.67-96.46-.07,91.36c-.72,10.24-15.47,12.2-19.42,3.23-1.54-3.5-.82-8.43-.9-12.28-.7-30.54-.11-61.23,0-91.79.02-5.98-1.55-16.88,1.52-21.95,3.6-5.96,13.96-5.7,18.52-.93,23.84,30.83,46.82,62.32,70.58,93.21.96,1.25,2.02,2.78,3.01,3.94.21.25.23.5.68.4Z"/>
  <path d="M584.52,104.49c-.24.18-.27.21-.27.49.01,1.28,1.02,4.38,1.54,5.66,8.07,19.94,33.26,25.51,50.62,13.79,3.33-2.25,5.48-5.25,10.03-5.1,7.7.26,12.04,9.34,7.2,15.35-8.24,10.23-28.41,15.39-41.04,14.61-38.89-2.38-61.22-42.93-43.37-77.33,18.25-35.16,69.63-37.57,89.84-2.87,4,6.86,9.05,21.95,6.2,29.52-.92,2.44-4.08,5.87-6.85,5.87h-73.92ZM645.36,87.71c-2.18-11.3-9.38-19.87-20.41-23.36-6.5-2.05-12.88-1.97-19.37.05-10.55,3.28-18.88,12.39-21.18,23.19l60.96.12Z"/>
  <path d="M27.7,31.25C52.06,6.12,92.59,3.72,119.98,25.55c3.79,3.02,7.91,6.63,7.46,11.95-.25,2.9-2.45,6.33-5.03,7.68-9.05,4.75-13.82-4.53-20.72-8.56-19.32-11.3-44.88-7.84-59.81,8.91-18.34,20.58-16.99,56.15,4.81,73.81,17.05,13.81,42.46,14.5,59.75.72,1.57-1.25,2.86-2.87,4.33-4.06,10.17-8.22,23.16,5.09,12.73,15.58-15.95,16.04-43.75,21.05-65.17,15.45C7.85,133.84-7.79,67.87,27.7,31.25Z"/>
  <path d="M184.51,44.65c7.54-.53,16.07-.13,23.21,2.32,22.18,7.62,34.49,26.38,35.41,49.48-.67,13.42.87,27.66-.01,40.99-.43,6.47-3.58,10.69-10.43,10.68-8.21-.02-10.35-6.18-10.08-13.19.01-.34.18-.43-.26-.72-1.98,1.53-3.59,3.44-5.52,5.03-23.03,18.91-57.59,9.84-72.45-14.63-19.83-32.65,1.51-77.26,40.13-79.95ZM223.17,96.7c0-18.29-14.85-33.12-33.17-33.12s-33.17,14.83-33.17,33.12,14.85,33.12,33.17,33.12,33.17-14.83,33.17-33.12Z"/>
  <path d="M342.24,104.49c1.76,10.01,8.06,18.06,17.07,22.62s17.88,4.15,26.92-.86c5.32-2.95,8.3-8.31,15.3-6.56,5.35,1.34,8.02,7.62,6.1,12.59-2.41,6.23-14.22,11.95-20.28,14.02-36.88,12.6-71.68-20.59-65.4-57.88,6.39-37.97,49.36-58.56,80.05-31.51,9.63,8.49,17.65,25.15,16.81,38.12-.24,3.65-3.11,9.46-7.33,9.46h-69.24ZM398.16,87.71c-2.25-14.42-17.05-27.31-31.97-24.13-11.69,2.49-21.09,12.5-23.71,24.01l55.68.12Z"/>
  <path d="M710.11,44.41c9.16-.41,18.17.91,26.13,5.64,5.83,3.47,8.2,9.79,3.31,15.37-6.26,7.13-14.42-1.13-21.42-2.55-7.87-1.59-20.12,0-21.14,9.9-1.26,12.21,16.82,14,25.17,16.51,11.29,3.39,23.18,11.31,24.24,24.21,1.71,20.91-10.85,33.43-31.08,35.58-11.4,1.21-28.64-1.87-37.08-10.18-5.98-5.89-2.23-16.52,6.32-16.57,4.48-.03,6.77,2.92,10.26,5.04,8.11,4.93,22.14,6.42,29.26-.94,3.11-3.22,3.53-10.32,1.02-13.95-4.3-6.21-18.09-8.41-25.14-10.84-10.97-3.79-20.05-9.3-21.89-21.76-3.16-21.46,11.61-34.54,32.04-35.45Z"/>
  <path d="M780.48,45.77h24.84c3,0,6.68,3.63,7.55,6.36,2.12,6.68-2.14,12.47-8.99,13.04-5.9.49-14.12.2-20.17.01-.74-.02-2.91-.73-3.2.14l-.04,44.31c.57,12,6.55,20.76,19.57,19.76,5.16-.4,9.11-4.67,14.6-1.15s6.14,11.06,1.37,15.41c-4.51,4.11-16.28,5.38-22.2,4.91-22.55-1.8-33.11-19.93-33.98-40.84-1.17-28.39.9-57.57.01-86.04-.17-9.69,14.71-12.69,19.24-5.08.34.58,1.39,2.87,1.39,3.4v25.76Z"/>
  <path d="M261.7,145.84c-1.99-1.81-2.74-4.34-2.99-6.95.57-15.84-.73-32.17,0-47.95,1.28-27.74,20.64-48.27,49.33-46.36,3.78.25,7.44,1.2,9.82,4.33,3.14,4.13,2.38,10.82-1.77,14s-8.34.77-13.09.82c-14.06.13-22.83,12.49-23.63,25.54-.98,15.93,1.05,33,0,48.9-.27,4.16-2.09,7.96-6.2,9.39-3.87,1.34-8.35,1.12-11.47-1.72Z"/>
  <path class="st0" d="M645.36,87.71l-60.96-.12c2.3-10.8,10.63-19.91,21.18-23.19,6.49-2.02,12.87-2.1,19.37-.05,11.03,3.48,18.23,12.06,20.41,23.36Z"/>
  <ellipse class="st0" cx="190.01" cy="96.7" rx="33.17" ry="33.12"/>
  <path class="st0" d="M398.16,87.71l-55.68-.12c2.62-11.51,12.02-21.52,23.71-24.01,14.92-3.17,29.72,9.71,31.97,24.13Z"/>
</svg>